<svg width="412" height="240" viewBox="0 0 412 240" fill="none" xmlns="http://www.w3.org/2000/svg">
<rect width="412" height="240" rx="29" fill="white"/>
<path d="M49.065 47.5455L84.2212 158.057H85.5707L120.798 47.5455H154.889L104.747 193H65.1161L14.9031 47.5455H49.065ZM291.167 47.5455L326.323 158.057H327.672L362.9 47.5455H396.99L346.848 193H307.218L257.005 47.5455H291.167Z" fill="#0BBA3F"/>
<path d="M246.368 108.341L231.311 112.602C230.364 110.093 228.967 107.654 227.12 105.287C225.321 102.872 222.859 100.884 219.734 99.321C216.609 97.7585 212.608 96.9773 207.731 96.9773C201.055 96.9773 195.492 98.5161 191.041 101.594C186.637 104.624 184.436 108.483 184.436 113.17C184.436 117.337 185.951 120.628 188.981 123.043C192.011 125.457 196.746 127.47 203.186 129.08L219.379 133.057C229.133 135.424 236.401 139.046 241.183 143.923C245.965 148.753 248.356 154.979 248.356 162.602C248.356 168.852 246.557 174.439 242.958 179.364C239.407 184.288 234.436 188.17 228.044 191.011C221.652 193.852 214.218 195.273 205.743 195.273C194.616 195.273 185.406 192.858 178.115 188.028C170.823 183.199 166.207 176.144 164.265 166.864L180.174 162.886C181.69 168.758 184.554 173.161 188.768 176.097C193.029 179.032 198.593 180.5 205.458 180.5C213.271 180.5 219.474 178.843 224.066 175.528C228.707 172.167 231.027 168.142 231.027 163.455C231.027 159.667 229.701 156.494 227.049 153.938C224.398 151.333 220.326 149.392 214.833 148.114L196.652 143.852C186.661 141.485 179.322 137.815 174.635 132.844C169.994 127.825 167.674 121.551 167.674 114.023C167.674 107.867 169.403 102.422 172.859 97.6875C176.363 92.9527 181.121 89.2358 187.135 86.5369C193.195 83.8381 200.061 82.4886 207.731 82.4886C218.527 82.4886 227.002 84.8561 233.157 89.5909C239.36 94.3258 243.763 100.576 246.368 108.341Z" fill="#0BBA3F"/>
<path d="M246.368 108.341L231.311 112.602C230.364 110.093 228.967 107.654 227.12 105.287C225.321 102.872 222.859 100.884 219.734 99.321C216.609 97.7585 212.608 96.9773 207.731 96.9773C201.055 96.9773 195.492 98.5161 191.041 101.594C186.637 104.624 184.436 108.483 184.436 113.17C184.436 117.337 185.951 120.628 188.981 123.043C192.011 125.457 196.746 127.47 203.186 129.08L219.379 133.057C229.133 135.424 236.401 139.046 241.183 143.923C245.965 148.753 248.356 154.979 248.356 162.602C248.356 168.852 246.557 174.439 242.958 179.364C239.407 184.288 234.436 188.17 228.044 191.011C221.652 193.852 214.218 195.273 205.743 195.273C194.616 195.273 185.406 192.858 178.115 188.028C170.823 183.199 166.207 176.144 164.265 166.864L180.174 162.886C181.69 168.758 184.554 173.161 188.768 176.097C193.029 179.032 198.593 180.5 205.458 180.5C213.271 180.5 219.474 178.843 224.066 175.528C228.707 172.167 231.027 168.142 231.027 163.455C231.027 159.667 229.701 156.494 227.049 153.938C224.398 151.333 220.326 149.392 214.833 148.114L196.652 143.852C186.661 141.485 179.322 137.815 174.635 132.844C169.994 127.825 167.674 121.551 167.674 114.023C167.674 107.867 169.403 102.422 172.859 97.6875C176.363 92.9527 181.121 89.2358 187.135 86.5369C193.195 83.8381 200.061 82.4886 207.731 82.4886C218.527 82.4886 227.002 84.8561 233.157 89.5909C239.36 94.3258 243.763 100.576 246.368 108.341Z" fill="#89C099"/>
</svg>
